<?xml version="1.0" standalone="no"?>
<!DOCTYPE svg PUBLIC "-//W3C//DTD SVG 20010904//EN"
 "http://www.w3.org/TR/2001/REC-SVG-20010904/DTD/svg10.dtd">
<svg version="1.0" xmlns="http://www.w3.org/2000/svg"
 width="400.000000pt" height="400.000000pt" viewBox="0 0 400.000000 400.000000"
 preserveAspectRatio="xMidYMid meet">
<metadata>
Created by potrace 1.11, written by Peter Selinger 2001-2013
</metadata>
<g transform="translate(0.000000,400.000000) scale(0.100000,-0.100000)"
fill="#000000" stroke="none">
<path d="M1835 3569 c-251 -26 -516 -126 -735 -277 -189 -130 -402 -373 -500
-570 -32 -63 -41 -73 -95 -103 -148 -79 -260 -180 -309 -277 -48 -94 -25 -179
54 -203 47 -14 93 -3 145 36 l30 22 -1 -231 -1 -231 -50 -105 c-183 -385 -203
-485 -106 -556 56 -41 97 -48 207 -34 100 12 206 33 223 43 5 3 45 -37 89 -90
296 -360 755 -573 1235 -573 96 0 280 26 390 54 395 103 749 374 956 731 97
167 155 332 193 547 31 180 23 397 -22 593 -35 152 -37 138 35 265 35 63 75
136 90 162 14 25 58 103 97 173 70 122 71 127 56 150 -14 21 -25 25 -64 25
-26 0 -79 3 -119 7 -91 7 -111 -4 -236 -138 l-93 -100 -49 68 c-27 37 -93 111
-145 163 -337 336 -798 498 -1275 449z"/>
</g>
</svg>
